name rise45.9887peak57.8056fall74.9286.mot
datacolumns 19
datarows 33
range 22.09824900000000 22.15158400000000
endheader
time	ground_force1_vx	ground_force1_vy	ground_force1_vz	ground_force1_px	ground_force1_py	ground_force1_pz	ground_force2_vx	ground_force2_vy	ground_force2_vz	ground_force2_px	ground_force2_py	ground_force2_pz	ground_torque1_x	ground_torque1_y	ground_torque1_z	ground_torque2_x	ground_torque2_y	ground_torque2_z	
22.09824900000000	9.14526300000000	706.49650099999997	43.45304700000000	0.18019700000000	0.00000000000000	0.11874800000000	0.00000000000000	0.00000000000000	0.00000000000000	0.00000000000000	0.00000000000000	0.00000000000000	0.00000000000000	13.35215800000000	0.00000000000000	0.00000000000000	0.00000000000000	0.00000000000000	
22.09991700000000	8.74214300000000	707.29331000000002	43.47858100000000	0.17930400000000	0.00000000000000	0.11869500000000	0.00000000000000	0.00000000000000	0.00000000000000	0.00000000000000	0.00000000000000	0.00000000000000	0.00000000000000	13.40974600000000	0.00000000000000	0.00000000000000	0.00000000000000	0.00000000000000	
22.10158300000000	8.32735600000000	708.11530000000005	43.50805400000000	0.17839600000000	0.00000000000000	0.11864300000000	0.00000000000000	0.00000000000000	0.00000000000000	0.00000000000000	0.00000000000000	0.00000000000000	0.00000000000000	13.47135100000000	0.00000000000000	0.00000000000000	0.00000000000000	0.00000000000000	
22.10325100000000	7.90064500000000	708.96154100000001	43.54136100000000	0.17747600000000	0.00000000000000	0.11859100000000	0.00000000000000	0.00000000000000	0.00000000000000	0.00000000000000	0.00000000000000	0.00000000000000	0.00000000000000	13.53698300000000	0.00000000000000	0.00000000000000	0.00000000000000	0.00000000000000	
22.10491900000000	7.46179100000000	709.83115999999995	43.57839900000000	0.17654200000000	0.00000000000000	0.11854000000000	0.00000000000000	0.00000000000000	0.00000000000000	0.00000000000000	0.00000000000000	0.00000000000000	0.00000000000000	13.60664900000000	0.00000000000000	0.00000000000000	0.00000000000000	0.00000000000000	
22.10658600000000	7.01061700000000	710.72334300000000	43.61906900000000	0.17559600000000	0.00000000000000	0.11848800000000	0.00000000000000	0.00000000000000	0.00000000000000	0.00000000000000	0.00000000000000	0.00000000000000	0.00000000000000	13.68035200000000	0.00000000000000	0.00000000000000	0.00000000000000	0.00000000000000	
22.10825800000000	6.54698900000000	711.63733600000000	43.66327400000000	0.17463700000000	0.00000000000000	0.11843700000000	0.00000000000000	0.00000000000000	0.00000000000000	0.00000000000000	0.00000000000000	0.00000000000000	0.00000000000000	13.75808700000000	0.00000000000000	0.00000000000000	0.00000000000000	0.00000000000000	
22.10992000000000	6.07081300000000	712.57244500000002	43.71092400000000	0.17366700000000	0.00000000000000	0.11838600000000	0.00000000000000	0.00000000000000	0.00000000000000	0.00000000000000	0.00000000000000	0.00000000000000	0.00000000000000	13.83984500000000	0.00000000000000	0.00000000000000	0.00000000000000	0.00000000000000	
22.11158400000000	5.58203900000000	713.52803900000004	43.76192800000000	0.17268500000000	0.00000000000000	0.11833500000000	0.00000000000000	0.00000000000000	0.00000000000000	0.00000000000000	0.00000000000000	0.00000000000000	0.00000000000000	13.92561000000000	0.00000000000000	0.00000000000000	0.00000000000000	0.00000000000000	
22.11325300000000	5.08065600000000	714.50354500000003	43.81620200000000	0.17169400000000	0.00000000000000	0.11828400000000	0.00000000000000	0.00000000000000	0.00000000000000	0.00000000000000	0.00000000000000	0.00000000000000	0.00000000000000	14.01536100000000	0.00000000000000	0.00000000000000	0.00000000000000	0.00000000000000	
22.11491900000000	4.56669400000000	715.49845300000004	43.87366500000000	0.17069200000000	0.00000000000000	0.11823300000000	0.00000000000000	0.00000000000000	0.00000000000000	0.00000000000000	0.00000000000000	0.00000000000000	0.00000000000000	14.10907000000000	0.00000000000000	0.00000000000000	0.00000000000000	0.00000000000000	
22.11658800000000	4.04022400000000	716.51230999999996	43.93423900000000	0.16968200000000	0.00000000000000	0.11818300000000	0.00000000000000	0.00000000000000	0.00000000000000	0.00000000000000	0.00000000000000	0.00000000000000	0.00000000000000	14.20670300000000	0.00000000000000	0.00000000000000	0.00000000000000	0.00000000000000	
22.11825400000000	3.50135600000000	717.54472099999998	43.99785200000000	0.16866300000000	0.00000000000000	0.11813200000000	0.00000000000000	0.00000000000000	0.00000000000000	0.00000000000000	0.00000000000000	0.00000000000000	0.00000000000000	14.30821800000000	0.00000000000000	0.00000000000000	0.00000000000000	0.00000000000000	
22.11991800000000	2.95024000000000	718.59535100000005	44.06443500000000	0.16763800000000	0.00000000000000	0.11808200000000	0.00000000000000	0.00000000000000	0.00000000000000	0.00000000000000	0.00000000000000	0.00000000000000	0.00000000000000	14.41356600000000	0.00000000000000	0.00000000000000	0.00000000000000	0.00000000000000	
22.12158800000000	2.38706100000000	719.66391399999998	44.13392500000000	0.16660600000000	0.00000000000000	0.11803200000000	0.00000000000000	0.00000000000000	0.00000000000000	0.00000000000000	0.00000000000000	0.00000000000000	0.00000000000000	14.52269300000000	0.00000000000000	0.00000000000000	0.00000000000000	0.00000000000000	
22.12325000000000	1.81204000000000	720.75017900000000	44.20626100000000	0.16556900000000	0.00000000000000	0.11798100000000	0.00000000000000	0.00000000000000	0.00000000000000	0.00000000000000	0.00000000000000	0.00000000000000	0.00000000000000	14.63553500000000	0.00000000000000	0.00000000000000	0.00000000000000	0.00000000000000	
22.12492000000000	1.22543700000000	721.85396400000002	44.28138800000000	0.16452700000000	0.00000000000000	0.11793100000000	0.00000000000000	0.00000000000000	0.00000000000000	0.00000000000000	0.00000000000000	0.00000000000000	0.00000000000000	14.75202300000000	0.00000000000000	0.00000000000000	0.00000000000000	0.00000000000000	
22.12658300000000	0.62754100000000	722.97513100000003	44.35925800000000	0.16348200000000	0.00000000000000	0.11788000000000	0.00000000000000	0.00000000000000	0.00000000000000	0.00000000000000	0.00000000000000	0.00000000000000	0.00000000000000	14.87208000000000	0.00000000000000	0.00000000000000	0.00000000000000	0.00000000000000	
22.12825000000000	0.01867500000000	724.11358600000005	44.43982400000000	0.16243400000000	0.00000000000000	0.11783000000000	0.00000000000000	0.00000000000000	0.00000000000000	0.00000000000000	0.00000000000000	0.00000000000000	0.00000000000000	14.99562000000000	0.00000000000000	0.00000000000000	0.00000000000000	0.00000000000000	
22.12991400000000	-0.60080700000000	725.26927000000001	44.52304800000000	0.16138400000000	0.00000000000000	0.11777900000000	0.00000000000000	0.00000000000000	0.00000000000000	0.00000000000000	0.00000000000000	0.00000000000000	0.00000000000000	15.12255200000000	0.00000000000000	0.00000000000000	0.00000000000000	0.00000000000000	
22.13158400000000	-1.23052200000000	726.44216100000006	44.60889300000000	0.16033400000000	0.00000000000000	0.11772900000000	0.00000000000000	0.00000000000000	0.00000000000000	0.00000000000000	0.00000000000000	0.00000000000000	0.00000000000000	15.25277600000000	0.00000000000000	0.00000000000000	0.00000000000000	0.00000000000000	
22.13325000000000	-1.87006300000000	727.63226699999996	44.69733100000000	0.15928400000000	0.00000000000000	0.11767800000000	0.00000000000000	0.00000000000000	0.00000000000000	0.00000000000000	0.00000000000000	0.00000000000000	0.00000000000000	15.38618600000000	0.00000000000000	0.00000000000000	0.00000000000000	0.00000000000000	
22.13491500000000	-2.51899300000000	728.83961799999997	44.78833700000000	0.15823500000000	0.00000000000000	0.11762700000000	0.00000000000000	0.00000000000000	0.00000000000000	0.00000000000000	0.00000000000000	0.00000000000000	0.00000000000000	15.52266700000000	0.00000000000000	0.00000000000000	0.00000000000000	0.00000000000000	
22.13658300000000	-3.17685500000000	730.06426799999997	44.88189100000000	0.15718700000000	0.00000000000000	0.11757600000000	0.00000000000000	0.00000000000000	0.00000000000000	0.00000000000000	0.00000000000000	0.00000000000000	0.00000000000000	15.66209900000000	0.00000000000000	0.00000000000000	0.00000000000000	0.00000000000000	
22.13825400000000	-3.84316900000000	731.30628200000001	44.97798000000000	0.15614300000000	0.00000000000000	0.11752500000000	0.00000000000000	0.00000000000000	0.00000000000000	0.00000000000000	0.00000000000000	0.00000000000000	0.00000000000000	15.80435400000000	0.00000000000000	0.00000000000000	0.00000000000000	0.00000000000000	
22.13991600000000	-4.51743500000000	732.56573700000001	45.07659500000000	0.15510100000000	0.00000000000000	0.11747300000000	0.00000000000000	0.00000000000000	0.00000000000000	0.00000000000000	0.00000000000000	0.00000000000000	0.00000000000000	15.94929700000000	0.00000000000000	0.00000000000000	0.00000000000000	0.00000000000000	
22.14158400000000	-5.19913600000000	733.84271500000000	45.17773200000000	0.15406400000000	0.00000000000000	0.11742200000000	0.00000000000000	0.00000000000000	0.00000000000000	0.00000000000000	0.00000000000000	0.00000000000000	0.00000000000000	16.09678700000000	0.00000000000000	0.00000000000000	0.00000000000000	0.00000000000000	
22.14325500000000	-5.88773900000000	735.13729300000000	45.28139300000000	0.15303100000000	0.00000000000000	0.11737000000000	0.00000000000000	0.00000000000000	0.00000000000000	0.00000000000000	0.00000000000000	0.00000000000000	0.00000000000000	16.24667500000000	0.00000000000000	0.00000000000000	0.00000000000000	0.00000000000000	
22.14491800000000	-6.58269600000000	736.44954499999994	45.38758300000000	0.15200400000000	0.00000000000000	0.11731900000000	0.00000000000000	0.00000000000000	0.00000000000000	0.00000000000000	0.00000000000000	0.00000000000000	0.00000000000000	16.39880900000000	0.00000000000000	0.00000000000000	0.00000000000000	0.00000000000000	
22.14658700000000	-7.28344800000000	737.77953100000002	45.49631400000000	0.15098200000000	0.00000000000000	0.11726700000000	0.00000000000000	0.00000000000000	0.00000000000000	0.00000000000000	0.00000000000000	0.00000000000000	0.00000000000000	16.55302700000000	0.00000000000000	0.00000000000000	0.00000000000000	0.00000000000000	
22.14825100000000	-7.98942300000000	739.12729000000002	45.60760100000000	0.14996700000000	0.00000000000000	0.11721500000000	0.00000000000000	0.00000000000000	0.00000000000000	0.00000000000000	0.00000000000000	0.00000000000000	0.00000000000000	16.70916500000000	0.00000000000000	0.00000000000000	0.00000000000000	0.00000000000000	
22.14992000000000	-8.70004400000000	740.49283900000000	45.72146400000000	0.14895800000000	0.00000000000000	0.11716300000000	0.00000000000000	0.00000000000000	0.00000000000000	0.00000000000000	0.00000000000000	0.00000000000000	0.00000000000000	16.86705200000000	0.00000000000000	0.00000000000000	0.00000000000000	0.00000000000000	
22.15158400000000	-9.41472500000000	741.87616500000001	45.83792600000000	0.14795600000000	0.00000000000000	0.11711100000000	0.00000000000000	0.00000000000000	0.00000000000000	0.00000000000000	0.00000000000000	0.00000000000000	0.00000000000000	17.02651000000000	0.00000000000000	0.00000000000000	0.00000000000000	0.00000000000000	
